Coordinates
version=1
nRows=18
nColumns=22
inDegrees=yes

Units are S.I. units (second, meters, Newtons, ...)
If the header above contains a line with 'inDegrees', this indicates whether rotational values are in degrees (yes) or radians (no).

endheader
time	pelvis_tilt	pelvis_list	pelvis_rotation	pelvis_tx	pelvis_ty	pelvis_tz	hip_flexion_r	hip_adduction_r	hip_rotation_r	knee_angle_r	ankle_angle_r	subtalar_angle_r	hip_flexion_l	hip_adduction_l	hip_rotation_l	knee_angle_l	ankle_angle_l	subtalar_angle_l	lumbar_extension	lumbar_bending	lumbar_rotation
      1.54000000	     -3.04808735	     -2.52152847	      7.65012035	      1.04351241	      1.01072623	      0.19367316	     11.22179107	      1.27319178	     -8.20876552	    -21.71694848	      9.70492537	     -1.06926606	      8.60824347	     -7.01220889	     -2.80414873	    -15.38806082	      8.49956871	      4.39471828	     -5.90691841	      1.86594620	     -1.43971848
      1.55000000	     -3.21975734	     -2.53551983	      8.05434991	      1.04107337	      1.01043062	      0.19460728	     11.56370761	      1.24743253	     -8.59867003	    -21.77219303	      9.64799842	     -1.16812065	      9.30537298	     -7.01894953	     -2.37442517	    -15.86292296	      8.35007695	      4.49633347	     -6.04258193	      2.00946566	     -1.39958953
      1.56000000	     -3.41281187	     -2.55870975	      8.48527512	      1.03855247	      1.01011528	      0.19548490	     11.92515818	      1.21540778	     -9.00547898	    -21.81496707	      9.58518432	     -1.24934127	     10.05743154	     -7.01744202	     -1.92822126	    -16.36890813	      8.18242694	      4.59359958	     -6.15872347	      2.16064696	     -1.36811353
      1.57000000	     -3.65431058	     -2.59280126	      8.92876257	      1.03592211	      1.00972957	      0.19632678	     12.34841342	      1.17470445	     -9.42132156	    -21.86595359	      9.52380159	     -1.33327425	     10.90427448	     -7.00795198	     -1.50558551	    -16.92694719	      8.00546844	      4.69548361	     -6.22654013	      2.31522021	     -1.33494517
      1.58000000	     -3.87860504	     -2.63037914	      9.43399887	      1.03319584	      1.00940254	      0.19706969	     12.74542805	      1.11943936	     -9.88916633	    -21.89922979	      9.43893522	     -1.37685464	     11.75883544	     -6.97404704	     -0.98150297	    -17.49113070	      7.79005595	      4.78273113	     -6.32126780	      2.47364249	     -1.35096819
      1.59000000	     -4.15170057	     -2.67349835	      9.95868490	      1.03033613	      1.00900654	      0.19775389	     13.20858023	      1.04345778	    -10.37836750	    -21.94874633	      9.35908769	     -1.42946639	     12.71424839	     -6.91890270	     -0.48360216	    -18.11464773	      7.56668761	      4.88206132	     -6.36553711	      2.63047252	     -1.37124835
      1.60000000	     -4.45686321	     -2.71916987	     10.50380373	      1.02735207	      1.00856132	      0.19842780	     13.72142682	      0.94840889	    -10.88977706	    -22.01739545	      9.28233880	     -1.49424168	     13.74915114	     -6.84473784	     -0.02064608	    -18.79374399	      7.33972722	      5.01077301	     -6.37887227	      2.77038836	     -1.39786670
      1.61000000	     -4.74287464	     -2.75419732	     11.08950074	      1.02426477	      1.00816556	      0.19902627	     14.21560113	      0.82408400	    -11.43687950	    -22.08963065	      9.19573357	     -1.55202040	     14.78504011	     -6.73226797	      0.48016159	    -19.49102366	      7.09303476	      5.17272446	     -6.41897216	      2.89570293	     -1.45614451
      1.62000000	     -5.02368296	     -2.77670791	     11.68337425	      1.02109757	      1.00778698	      0.19959285	     14.71191288	      0.67302033	    -11.98877952	    -22.17607844	      9.10625710	     -1.61895478	     15.82984310	     -6.58887635	      0.95156942	    -20.21677743	      6.85238148	      5.39758107	     -6.46575531	      2.99819873	     -1.51514317
      1.63000000	     -5.28346303	     -2.78030327	     12.27219680	      1.01789234	      1.00744503	      0.20013256	     15.18965785	      0.49513869	    -12.53590728	    -22.27501075	      9.02218748	     -1.69580401	     16.85251911	     -6.41824465	      1.36842077	    -20.96926971	      6.65039811	      5.69294491	     -6.53297340	      3.07408136	     -1.56855694
      1.64000000	     -5.51871627	     -2.76090309	     12.83729692	      1.01468153	      1.00715021	      0.20066893	     15.64367172	      0.29535028	    -13.04996297	    -22.38583432	      8.93700422	     -1.78777434	     17.83328975	     -6.22686771	      1.70750941	    -21.74441977	      6.50319412	      6.07409729	     -6.62159985	      3.11764102	     -1.59915649
      1.65000000	     -5.72189948	     -2.71447183	     13.36814625	      1.01148885	      1.00691253	      0.20120882	     16.06450276	      0.07595729	    -13.51779360	    -22.50825722	      8.85008818	     -1.89580188	     18.75293685	     -6.02158957	      1.95374162	    -22.54771544	      6.43522168	      6.53318153	     -6.73632880	      3.12652725	     -1.60368891
      1.66000000	     -5.88763064	     -2.63839299	     13.85638765	      1.00834514	      1.00674282	      0.20175896	     16.44246116	     -0.15976528	    -13.93334234	    -22.63822575	      8.76310709	     -2.01666793	     19.59672031	     -5.81021183	      2.09158618	    -23.38963761	      6.46729042	      7.03287333	     -6.87958032	      3.09964838	     -1.57601880
      1.67000000	     -6.01424126	     -2.53484935	     14.30313988	      1.00528065	      1.00664720	      0.20232817	     16.76931799	     -0.40382780	    -14.28949331	    -22.76536247	      8.68144654	     -2.14030946	     20.36014411	     -5.60254812	      2.11484059	    -24.28824231	      6.58810465	      7.49851927	     -7.04601482	      3.03769256	     -1.52639209
      1.68000000	     -6.10486050	     -2.41059182	     14.69327810	      1.00231128	      1.00661385	      0.20293636	     17.05334772	     -0.64553951	    -14.57803906	    -22.89473294	      8.60024587	     -2.26992659	     21.04354928	     -5.41501221	      2.01427590	    -25.26509993	      6.81839941	      7.90760299	     -7.22707519	      2.94614506	     -1.43327604
      1.69000000	     -6.15302561	     -2.27248008	     15.02734375	      0.99944317	      1.00665333	      0.20358972	     17.28784133	     -0.87279541	    -14.78914632	    -23.02299738	      8.53007324	     -2.38768136	     21.64065391	     -5.25775032	      1.81471490	    -26.34135178	      7.14701472	      8.16987103	     -7.42640140	      2.83379788	     -1.30280346
      1.70000000	     -6.16722407	     -2.13380360	     15.30689392	      0.99670672	      1.00677439	      0.20429478	     17.47004929	     -1.07151404	    -14.93920074	    -23.12159579	      8.42571452	     -2.49115187	     22.16802323	     -5.15041153	      1.50137790	    -27.53928132	      7.47750434	      8.30858680	     -7.62040553	      2.71038820	     -1.13824585
      1.71000000	     -6.16005431	     -2.00002806	     15.54151453	      0.99404810	      1.00695040	      0.20503307	     17.61975803	     -1.24475993	    -15.03832746	    -23.19696818	      8.31068828	     -2.57820939	     22.64027917	     -5.08276875	      1.14588167	    -28.86693396	      7.80969172	      8.30878267	     -7.80063406	      2.58266212	     -0.96165554
